<?xml version="1.0" standalone="no"?>
<!DOCTYPE svg PUBLIC "-//W3C//DTD SVG 20010904//EN"
 "http://www.w3.org/TR/2001/REC-SVG-20010904/DTD/svg10.dtd">
<svg version="1.0" xmlns="http://www.w3.org/2000/svg"
 width="1408.000000pt" height="736.000000pt" viewBox="0 0 1408.000000 736.000000"
 preserveAspectRatio="xMidYMid meet">

<g transform="translate(0.000000,736.000000) scale(0.100000,-0.100000)"
fill="#000000" stroke="none">
<path d="M5528 5763 l-3 -298 -82 -153 c-127 -235 -226 -432 -222 -437 3 -2
95 21 204 52 110 30 213 58 229 60 34 7 33 2 -19 -110 -32 -68 -33 -73 -16
-90 9 -10 45 -22 81 -28 99 -16 111 -19 105 -28 -3 -5 -29 -12 -58 -16 -95
-13 -108 -26 -121 -123 -4 -24 -14 -55 -23 -69 -14 -22 -22 -24 -62 -21 -25 3
-53 8 -62 12 -27 12 -50 -22 -169 -257 -62 -122 -160 -311 -217 -420 -58 -109
-102 -201 -99 -204 6 -6 87 8 346 62 91 19 307 62 480 95 173 34 391 77 483
96 180 36 217 40 217 23 0 -6 -223 -460 -496 -1008 -466 -934 -876 -1767 -895
-1818 -13 -35 -5 -28 42 34 83 112 429 545 609 764 52 63 118 144 147 180 135
167 412 504 648 788 267 322 379 465 366 469 -6 2 -93 -24 -193 -58 -109 -37
-184 -58 -190 -52 -5 5 38 72 110 168 265 355 335 458 319 463 -20 7 -34 26
-29 39 2 7 -6 12 -20 13 -12 1 -27 2 -33 4 -5 1 -15 3 -22 3 -7 1 -21 11 -32
23 -11 12 -24 18 -30 14 -6 -3 -11 0 -11 7 0 10 -3 9 -10 -2 -5 -8 -12 -12
-15 -8 -4 3 8 33 26 65 53 95 58 106 53 115 -3 5 -38 7 -77 4 -40 -3 -62 -2
-49 0 29 7 38 29 21 51 -12 14 -12 15 -1 9 11 -7 12 -4 3 12 -15 29 -14 52 4
52 20 0 19 19 -1 27 -15 6 -15 8 2 20 13 10 14 13 3 13 -11 0 -12 2 0 9 7 5 9
11 5 14 -9 5 -627 -37 -701 -48 -23 -3 -44 -2 -46 3 -3 4 4 24 16 44 12 20 38
63 56 95 19 31 92 147 162 258 70 110 158 249 196 308 37 59 109 172 158 250
129 203 146 233 139 254 -5 14 -4 15 4 4 8 -11 12 -9 22 9 8 15 8 20 1 16 -7
-4 -11 1 -11 13 0 12 -4 21 -10 21 -5 0 -10 6 -10 14 0 7 -11 16 -25 18 -14 3
-25 1 -25 -3 0 -5 -6 -9 -14 -9 -9 0 -12 7 -9 18 3 14 -6 21 -46 33 -27 8 -48
12 -45 7 3 -4 -11 -1 -30 7 -34 15 -97 25 -144 25 -13 0 -20 4 -17 10 3 5 -13
7 -40 3 -35 -4 -45 -2 -43 8 2 10 -10 14 -44 14 -25 1 -53 7 -62 14 -9 7 -22
11 -30 8 -8 -3 -17 -1 -20 6 -2 7 -5 4 -5 -5 -1 -21 -2 -21 -35 -8 -14 5 -26
16 -26 23 0 8 34 81 75 163 41 82 75 152 75 157 0 4 -160 7 -355 7 l-354 0 -3
-297z"/>
<path d="M7407 5979 c-70 -150 -176 -377 -231 -491 -31 -65 -56 -122 -56 -127
0 -4 80 -11 178 -14 143 -4 190 -9 247 -27 141 -44 251 -154 295 -297 29 -96
29 -274 0 -364 -29 -88 -85 -165 -154 -212 -46 -32 -71 -62 -140 -166 -45 -69
-167 -238 -270 -375 -103 -137 -185 -257 -184 -265 3 -14 35 -17 233 -22 239
-6 285 -12 395 -56 249 -99 371 -300 357 -587 -13 -274 -151 -445 -422 -523
-53 -15 -128 -17 -640 -21 l-580 -3 -24 -22 c-13 -12 -69 -78 -124 -147 -55
-69 -130 -161 -167 -205 -180 -218 -251 -307 -248 -310 2 -2 426 0 943 4 l940
8 115 26 c354 77 639 251 797 487 67 99 85 137 121 250 94 288 94 646 1 900
-96 261 -362 518 -626 604 -29 10 -53 23 -53 29 0 7 36 31 79 55 42 24 105 65
139 93 69 55 177 188 214 264 161 323 133 821 -64 1122 -125 192 -327 331
-592 407 -113 33 -185 45 -328 53 l-117 6 -34 -74z"/>
<path d="M6795 5590 c-2 -3 0 -12 5 -20 7 -11 11 -11 24 -1 9 8 16 17 16 22 0
9 -39 8 -45 -1z"/>
<path d="M6762 5568 c6 -18 28 -21 28 -4 0 9 -7 16 -16 16 -9 0 -14 -5 -12
-12z"/>
<path d="M5536 3493 c-3 -4 -6 -245 -6 -537 0 -301 4 -526 9 -521 4 6 27 66
50 135 23 69 57 166 76 215 19 50 73 198 120 330 47 132 93 259 102 283 8 24
13 45 11 47 -2 3 -78 14 -169 25 -90 11 -169 22 -176 25 -6 2 -14 1 -17 -2z"/>
</g>
</svg>
